<?xml version="1.0" encoding="UTF-8"?><svg width="2400" height="2400" viewBox="0 0 2400 2400" xmlns="http://www.w3.org/2000/svg"><defs><!-- Gradients for 3D depth --><linearGradient id="primaryGradient" x1="0%" y1="0%" x2="100%" y2="100%"><stop offset="0%" style="stop-color:#FF6B35;stop-opacity:1" /><stop offset="50%" style="stop-color:#F7931E;stop-opacity:1" /><stop offset="100%" style="stop-color:#FF8C42;stop-opacity:1" /></linearGradient><linearGradient id="accentGradient" x1="0%" y1="0%" x2="100%" y2="100%"><stop offset="0%" style="stop-color:#FFD23F;stop-opacity:1" /><stop offset="100%" style="stop-color:#FF8C42;stop-opacity:1" /></linearGradient><linearGradient id="textGradient" x1="0%" y1="0%" x2="100%" y2="0%"><stop offset="0%" style="stop-color:#FF6B35;stop-opacity:1" /><stop offset="100%" style="stop-color:#F7931E;stop-opacity:1" /></linearGradient><!-- Shadow filters for 3D effect --><filter id="dropshadow" x="-50%" y="-50%" width="200%" height="200%"><feGaussianBlur in="SourceAlpha" stdDeviation="12"/><feOffset dx="8" dy="12" result="offset"/><feComponentTransfer><feFuncA type="linear" slope="0.3"/></feComponentTransfer><feMerge><feMergeNode/><feMergeNode in="SourceGraphic"/></feMerge></filter></defs><!-- Background circle for 3D base --><g id="background-layer"><circle cx="1200" cy="1200" r="1000" fill="#F8F9FA" opacity="0.1"/></g><!-- Main Logo Container - Primary 3D group --><g id="main-logo-container" transform="translate(1200, 800)"><!-- Primary Trading Symbol --><g id="primary-symbol" filter="url(#dropshadow)"><!-- Outer hexagonal ring --><g id="outer-ring"><polygon points="-180,-104 -90,-180 90,-180 180,-104 180,104 90,180 -90,180 -180,104" fill="url(#primaryGradient)" stroke="#FF4500" stroke-width="12"/></g><!-- Inner hexagonal core --><g id="inner-core"><polygon points="-100,-58 -50,-100 50,-100 100,-58 100,58 50,100 -50,100 -100,58" fill="url(#accentGradient)" stroke="#FFD700" stroke-width="6"/></g><!-- Central trading arrows --><g id="trading-arrows"><!-- Upward trend arrow --><g id="up-trend"><polygon points="-30,-30 0,-60 30,-30 15,-30 15,-15 -15,-15 -15,-30" fill="#FFFFFF" stroke="#FF6B35" stroke-width="3"/></g><!-- Downward trend arrow --><g id="down-trend"><polygon points="-30,30 0,60 30,30 15,30 15,15 -15,15 -15,30" fill="#FFFFFF" stroke="#FF6B35" stroke-width="3"/></g><!-- Exchange symbol --><g id="exchange-symbol"><circle cx="-45" cy="0" r="8" fill="#FFD700"/><circle cx="45" cy="0" r="8" fill="#FFD700"/><line x1="-37" y1="0" x2="37" y2="0" stroke="#FFD700" stroke-width="4"/></g></g><!-- Orbital rings for dynamic feel --><g id="orbital-rings" opacity="0.6"><circle cx="0" cy="0" r="220" fill="none" stroke="url(#primaryGradient)" stroke-width="4" stroke-dasharray="20,10"/><circle cx="0" cy="0" r="260" fill="none" stroke="url(#accentGradient)" stroke-width="2" stroke-dasharray="15,15"/></g></g></g><!-- Company Name - Separate 3D layer --><g id="company-name" transform="translate(1200, 1400)"><!-- "TRADE" text --><g id="trade-text"><text x="-180" y="0" font-family="Arial Black, sans-serif" font-size="120" font-weight="900" fill="url(#textGradient)" stroke="#FF4500" stroke-width="2">TRADE</text></g><!-- "YA" text with emphasis --><g id="ya-text"><text x="60" y="0" font-family="Arial Black, sans-serif" font-size="120" font-weight="900" fill="url(#accentGradient)" stroke="#FFD700" stroke-width="2">YA</text></g><!-- Connecting element --><g id="connector"><rect x="40" y="-10" width="20" height="20" fill="url(#primaryGradient)" rx="10"/></g></g><!-- Tagline layer --><g id="tagline" transform="translate(1200, 1550)"><text x="0" y="0" text-anchor="middle" font-family="Arial, sans-serif" font-size="48" font-weight="600" fill="#666666">SKILL EXCHANGE PLATFORM</text></g><!-- Decorative elements for 3D depth --><g id="decorative-elements" opacity="0.3"><!-- Corner accent marks --><g id="corner-accents"><!-- Top left --><polygon points="200,200 300,200 250,150" fill="url(#primaryGradient)"/><!-- Top right --><polygon points="2200,200 2100,200 2150,150" fill="url(#accentGradient)"/><!-- Bottom left --><polygon points="200,2200 300,2200 250,2250" fill="url(#accentGradient)"/><!-- Bottom right --><polygon points="2200,2200 2100,2200 2150,2250" fill="url(#primaryGradient)"/></g><!-- Grid pattern for depth --><g id="grid-pattern"><defs><pattern id="grid" width="100" height="100" patternUnits="userSpaceOnUse"><path d="M 100 0 L 0 0 0 100" fill="none" stroke="url(#primaryGradient)" stroke-width="1" opacity="0.2"/></pattern></defs><rect width="2400" height="2400" fill="url(#grid)"/></g></g></svg>